<svg width="120" height="120" viewBox="0 0 120 120" fill="none" xmlns="http://www.w3.org/2000/svg">
<rect width="120" height="120" fill="#363636"/>
<path d="M52.8828 51.836V74.553M52.8828 46.577C52.8807 46.0605 53.0589 45.5594 53.3868 45.1603C53.7147 44.7612 54.1717 44.4891 54.6788 44.391L74.3518 40.543C74.9285 40.4286 75.5271 40.5479 76.0158 40.8748C76.5045 41.2017 76.8434 41.7093 76.9578 42.286L52.8828 46.577ZM52.8828 51.836C52.8807 51.3195 53.0589 50.8184 53.3868 50.4193C53.7147 50.0202 54.1717 49.7481 54.6788 49.65L74.3518 45.802C74.6733 45.7383 75.0049 45.7466 75.3227 45.8264C75.6406 45.9062 75.9368 46.0555 76.19 46.2635C76.4432 46.4715 76.6472 46.7331 76.7872 47.0294C76.9273 47.3256 76.9999 47.6493 76.9998 47.977L52.8828 51.836ZM76.9998 47.977L76.9688 67.913L76.9998 47.977Z" stroke="white" stroke-linecap="round" stroke-linejoin="round"/>
<path d="M47.946 79.5C50.6782 79.5 52.893 77.2851 52.893 74.553C52.893 71.8208 50.6782 69.606 47.946 69.606C45.2139 69.606 42.999 71.8208 42.999 74.553C42.999 77.2851 45.2139 79.5 47.946 79.5Z" stroke="white" stroke-linecap="round" stroke-linejoin="round"/>
<path d="M72.0232 72.86C74.7553 72.86 76.9702 70.6452 76.9702 67.913C76.9702 65.1809 74.7553 62.966 72.0232 62.966C69.291 62.966 67.0762 65.1809 67.0762 67.913C67.0762 70.6452 69.291 72.86 72.0232 72.86Z" stroke="white" stroke-linecap="round" stroke-linejoin="round"/>
</svg>
